<svg xmlns="http://www.w3.org/2000/svg" version="1.1" xmlns:xlink="http://www.w3.org/1999/xlink" xmlns:svgjs="http://svgjs.dev/svgjs" width="1920" height="1080" preserveAspectRatio="none" viewBox="0 0 1920 1080">
    <g mask="url(&quot;#SvgjsMask1009&quot;)" fill="none">
        <path d="M111.1 48.23L176.06 85.73L176.06 160.73L111.1 198.23L46.15 160.73L46.15 85.73zM46.15 160.73L111.1 198.23L111.1 273.23L46.15 310.73L-18.8 273.23L-18.8 198.23zM46.15 610.73L111.1 648.23L111.1 723.23L46.15 760.73L-18.8 723.23L-18.8 648.23zM46.15 835.73L111.1 873.23L111.1 948.23L46.15 985.73L-18.8 948.23L-18.8 873.23zM111.1 948.23L176.06 985.73L176.06 1060.73L111.1 1098.23L46.15 1060.73L46.15 985.73zM241.01 48.23L305.96 85.73L305.96 160.73L241.01 198.23L176.06 160.73L176.06 85.73zM176.06 160.73L241.01 198.23L241.01 273.23L176.06 310.73L111.1 273.23L111.1 198.23zM241.01 498.23L305.96 535.73L305.96 610.73L241.01 648.23L176.06 610.73L176.06 535.73zM176.06 835.73L241.01 873.23L241.01 948.23L176.06 985.73L111.1 948.23L111.1 873.23zM305.96 -64.27L370.92 -26.77L370.92 48.23L305.96 85.73L241.01 48.23L241.01 -26.77zM370.92 498.23L435.87 535.73L435.87 610.73L370.92 648.23L305.96 610.73L305.96 535.73zM370.92 723.23L435.87 760.73L435.87 835.73L370.92 873.23L305.96 835.73L305.96 760.73zM305.96 1060.73L370.92 1098.23L370.92 1173.23L305.96 1210.73L241.01 1173.23L241.01 1098.23zM500.83 48.23L565.78 85.73L565.78 160.73L500.83 198.23L435.87 160.73L435.87 85.73zM500.83 948.23L565.78 985.73L565.78 1060.73L500.83 1098.23L435.87 1060.73L435.87 985.73zM435.87 1060.73L500.83 1098.23L500.83 1173.23L435.87 1210.73L370.92 1173.23L370.92 1098.23zM565.78 -64.27L630.73 -26.77L630.73 48.23L565.78 85.73L500.83 48.23L500.83 -26.77zM565.78 160.73L630.73 198.23L630.73 273.23L565.78 310.73L500.83 273.23L500.83 198.23zM630.73 273.23L695.69 310.73L695.69 385.73L630.73 423.23L565.78 385.73L565.78 310.73zM630.73 498.23L695.69 535.73L695.69 610.73L630.73 648.23L565.78 610.73L565.78 535.73zM565.78 835.73L630.73 873.23L630.73 948.23L565.78 985.73L500.83 948.23L500.83 873.23zM695.69 -64.27L760.64 -26.77L760.64 48.23L695.69 85.73L630.73 48.23L630.73 -26.77zM760.64 48.23L825.6 85.73L825.6 160.73L760.64 198.23L695.69 160.73L695.69 85.73zM695.69 160.73L760.64 198.23L760.64 273.23L695.69 310.73L630.73 273.23L630.73 198.23zM760.64 273.23L825.6 310.73L825.6 385.73L760.64 423.23L695.69 385.73L695.69 310.73zM695.69 610.73L760.64 648.23L760.64 723.23L695.69 760.73L630.73 723.23L630.73 648.23zM695.69 835.73L760.64 873.23L760.64 948.23L695.69 985.73L630.73 948.23L630.73 873.23zM890.55 48.23L955.5 85.73L955.5 160.73L890.55 198.23L825.59 160.73L825.59 85.73zM825.59 160.73L890.55 198.23L890.55 273.23L825.59 310.73L760.64 273.23L760.64 198.23zM890.55 273.23L955.5 310.73L955.5 385.73L890.55 423.23L825.59 385.73L825.59 310.73zM890.55 498.23L955.5 535.73L955.5 610.73L890.55 648.23L825.59 610.73L825.59 535.73zM825.59 610.73L890.55 648.23L890.55 723.23L825.59 760.73L760.64 723.23L760.64 648.23zM890.55 723.23L955.5 760.73L955.5 835.73L890.55 873.23L825.59 835.73L825.59 760.73zM955.5 -64.27L1020.46 -26.77L1020.46 48.23L955.5 85.73L890.55 48.23L890.55 -26.77zM1020.46 48.23L1085.41 85.73L1085.41 160.73L1020.46 198.23L955.5 160.73L955.5 85.73zM1020.46 273.23L1085.41 310.73L1085.41 385.73L1020.46 423.23L955.5 385.73L955.5 310.73zM955.5 385.73L1020.46 423.23L1020.46 498.23L955.5 535.73L890.55 498.23L890.55 423.23zM955.5 610.73L1020.46 648.23L1020.46 723.23L955.5 760.73L890.55 723.23L890.55 648.23zM1020.46 723.23L1085.41 760.73L1085.41 835.73L1020.46 873.23L955.5 835.73L955.5 760.73zM1020.46 948.23L1085.41 985.73L1085.41 1060.73L1020.46 1098.23L955.5 1060.73L955.5 985.73zM955.5 1060.73L1020.46 1098.23L1020.46 1173.23L955.5 1210.73L890.55 1173.23L890.55 1098.23zM1085.41 -64.27L1150.36 -26.77L1150.36 48.23L1085.41 85.73L1020.46 48.23L1020.46 -26.77zM1150.36 48.23L1215.32 85.73L1215.32 160.73L1150.36 198.23L1085.41 160.73L1085.41 85.73zM1085.41 160.73L1150.36 198.23L1150.36 273.23L1085.41 310.73L1020.46 273.23L1020.46 198.23zM1085.41 385.73L1150.36 423.23L1150.36 498.23L1085.41 535.73L1020.46 498.23L1020.46 423.23zM1150.36 498.23L1215.32 535.73L1215.32 610.73L1150.36 648.23L1085.41 610.73L1085.41 535.73zM1150.36 723.23L1215.32 760.73L1215.32 835.73L1150.36 873.23L1085.41 835.73L1085.41 760.73zM1085.41 835.73L1150.36 873.23L1150.36 948.23L1085.41 985.73L1020.46 948.23L1020.46 873.23zM1150.36 948.23L1215.32 985.73L1215.32 1060.73L1150.36 1098.23L1085.41 1060.73L1085.41 985.73zM1085.41 1060.73L1150.36 1098.23L1150.36 1173.23L1085.41 1210.73L1020.46 1173.23L1020.46 1098.23zM1215.32 385.73L1280.27 423.23L1280.27 498.23L1215.32 535.73L1150.36 498.23L1150.36 423.23zM1280.27 498.23L1345.22 535.73L1345.22 610.73L1280.27 648.23L1215.32 610.73L1215.32 535.73zM1280.27 723.23L1345.22 760.73L1345.22 835.73L1280.27 873.23L1215.32 835.73L1215.32 760.73zM1345.23 -64.27L1410.18 -26.77L1410.18 48.23L1345.23 85.73L1280.27 48.23L1280.27 -26.77zM1345.23 160.73L1410.18 198.23L1410.18 273.23L1345.23 310.73L1280.27 273.23L1280.27 198.23zM1410.18 498.23L1475.13 535.73L1475.13 610.73L1410.18 648.23L1345.23 610.73L1345.23 535.73zM1345.23 835.73L1410.18 873.23L1410.18 948.23L1345.23 985.73L1280.27 948.23L1280.27 873.23zM1410.18 948.23L1475.13 985.73L1475.13 1060.73L1410.18 1098.23L1345.23 1060.73L1345.23 985.73zM1345.23 1060.73L1410.18 1098.23L1410.18 1173.23L1345.23 1210.73L1280.27 1173.23L1280.27 1098.23zM1475.13 -64.27L1540.09 -26.77L1540.09 48.23L1475.13 85.73L1410.18 48.23L1410.18 -26.77zM1540.09 48.23L1605.04 85.73L1605.04 160.73L1540.09 198.23L1475.13 160.73L1475.13 85.73zM1475.13 160.73L1540.09 198.23L1540.09 273.23L1475.13 310.73L1410.18 273.23L1410.18 198.23zM1540.09 273.23L1605.04 310.73L1605.04 385.73L1540.09 423.23L1475.13 385.73L1475.13 310.73zM1540.09 723.23L1605.04 760.73L1605.04 835.73L1540.09 873.23L1475.13 835.73L1475.13 760.73zM1475.13 835.73L1540.09 873.23L1540.09 948.23L1475.13 985.73L1410.18 948.23L1410.18 873.23zM1475.13 1060.73L1540.09 1098.23L1540.09 1173.23L1475.13 1210.73L1410.18 1173.23L1410.18 1098.23zM1605.04 -64.27L1669.99 -26.77L1669.99 48.23L1605.04 85.73L1540.09 48.23L1540.09 -26.77zM1669.99 48.23L1734.95 85.73L1734.95 160.73L1669.99 198.23L1605.04 160.73L1605.04 85.73zM1605.04 385.73L1669.99 423.23L1669.99 498.23L1605.04 535.73L1540.09 498.23L1540.09 423.23zM1669.99 498.23L1734.95 535.73L1734.95 610.73L1669.99 648.23L1605.04 610.73L1605.04 535.73zM1669.99 723.23L1734.95 760.73L1734.95 835.73L1669.99 873.23L1605.04 835.73L1605.04 760.73zM1605.04 835.73L1669.99 873.23L1669.99 948.23L1605.04 985.73L1540.09 948.23L1540.09 873.23zM1605.04 1060.73L1669.99 1098.23L1669.99 1173.23L1605.04 1210.73L1540.09 1173.23L1540.09 1098.23zM1734.95 385.73L1799.9 423.23L1799.9 498.23L1734.95 535.73L1669.99 498.23L1669.99 423.23zM1929.81 48.23L1994.76 85.73L1994.76 160.73L1929.81 198.23L1864.86 160.73L1864.86 85.73zM1864.86 160.73L1929.81 198.23L1929.81 273.23L1864.86 310.73L1799.9 273.23L1799.9 198.23zM1864.86 385.73L1929.81 423.23L1929.81 498.23L1864.86 535.73L1799.9 498.23L1799.9 423.23zM1864.86 610.73L1929.81 648.23L1929.81 723.23L1864.86 760.73L1799.9 723.23L1799.9 648.23zM1929.81 723.23L1994.76 760.73L1994.76 835.73L1929.81 873.23L1864.86 835.73L1864.86 760.73zM1864.86 1060.73L1929.81 1098.23L1929.81 1173.23L1864.86 1210.73L1799.9 1173.23L1799.9 1098.23z" stroke="#03305d" stroke-width="2"></path>
        <path d="M103.6 48.23 a7.5 7.5 0 1 0 15 0 a7.5 7.5 0 1 0 -15 0zM168.56 85.73 a7.5 7.5 0 1 0 15 0 a7.5 7.5 0 1 0 -15 0zM168.56 160.73 a7.5 7.5 0 1 0 15 0 a7.5 7.5 0 1 0 -15 0zM103.6 198.23 a7.5 7.5 0 1 0 15 0 a7.5 7.5 0 1 0 -15 0zM38.65 160.73 a7.5 7.5 0 1 0 15 0 a7.5 7.5 0 1 0 -15 0zM38.65 85.73 a7.5 7.5 0 1 0 15 0 a7.5 7.5 0 1 0 -15 0zM103.6 273.23 a7.5 7.5 0 1 0 15 0 a7.5 7.5 0 1 0 -15 0zM38.65 310.73 a7.5 7.5 0 1 0 15 0 a7.5 7.5 0 1 0 -15 0zM-26.3 273.23 a7.5 7.5 0 1 0 15 0 a7.5 7.5 0 1 0 -15 0zM-26.3 198.23 a7.5 7.5 0 1 0 15 0 a7.5 7.5 0 1 0 -15 0zM38.65 610.73 a7.5 7.5 0 1 0 15 0 a7.5 7.5 0 1 0 -15 0zM103.6 648.23 a7.5 7.5 0 1 0 15 0 a7.5 7.5 0 1 0 -15 0zM103.6 723.23 a7.5 7.5 0 1 0 15 0 a7.5 7.5 0 1 0 -15 0zM38.65 760.73 a7.5 7.5 0 1 0 15 0 a7.5 7.5 0 1 0 -15 0zM-26.3 723.23 a7.5 7.5 0 1 0 15 0 a7.5 7.5 0 1 0 -15 0zM-26.3 648.23 a7.5 7.5 0 1 0 15 0 a7.5 7.5 0 1 0 -15 0zM38.65 835.73 a7.5 7.5 0 1 0 15 0 a7.5 7.5 0 1 0 -15 0zM103.6 873.23 a7.5 7.5 0 1 0 15 0 a7.5 7.5 0 1 0 -15 0zM103.6 948.23 a7.5 7.5 0 1 0 15 0 a7.5 7.5 0 1 0 -15 0zM38.65 985.73 a7.5 7.5 0 1 0 15 0 a7.5 7.5 0 1 0 -15 0zM-26.3 948.23 a7.5 7.5 0 1 0 15 0 a7.5 7.5 0 1 0 -15 0zM-26.3 873.23 a7.5 7.5 0 1 0 15 0 a7.5 7.5 0 1 0 -15 0zM168.56 985.73 a7.5 7.5 0 1 0 15 0 a7.5 7.5 0 1 0 -15 0zM168.56 1060.73 a7.5 7.5 0 1 0 15 0 a7.5 7.5 0 1 0 -15 0zM103.6 1098.23 a7.5 7.5 0 1 0 15 0 a7.5 7.5 0 1 0 -15 0zM38.65 1060.73 a7.5 7.5 0 1 0 15 0 a7.5 7.5 0 1 0 -15 0zM233.51 48.23 a7.5 7.5 0 1 0 15 0 a7.5 7.5 0 1 0 -15 0zM298.46 85.73 a7.5 7.5 0 1 0 15 0 a7.5 7.5 0 1 0 -15 0zM298.46 160.73 a7.5 7.5 0 1 0 15 0 a7.5 7.5 0 1 0 -15 0zM233.51 198.23 a7.5 7.5 0 1 0 15 0 a7.5 7.5 0 1 0 -15 0zM233.51 273.23 a7.5 7.5 0 1 0 15 0 a7.5 7.5 0 1 0 -15 0zM168.56 310.73 a7.5 7.5 0 1 0 15 0 a7.5 7.5 0 1 0 -15 0zM233.51 498.23 a7.5 7.5 0 1 0 15 0 a7.5 7.5 0 1 0 -15 0zM298.46 535.73 a7.5 7.5 0 1 0 15 0 a7.5 7.5 0 1 0 -15 0zM298.46 610.73 a7.5 7.5 0 1 0 15 0 a7.5 7.5 0 1 0 -15 0zM233.51 648.23 a7.5 7.5 0 1 0 15 0 a7.5 7.5 0 1 0 -15 0zM168.56 610.73 a7.5 7.5 0 1 0 15 0 a7.5 7.5 0 1 0 -15 0zM168.56 535.73 a7.5 7.5 0 1 0 15 0 a7.5 7.5 0 1 0 -15 0zM168.56 835.73 a7.5 7.5 0 1 0 15 0 a7.5 7.5 0 1 0 -15 0zM233.51 873.23 a7.5 7.5 0 1 0 15 0 a7.5 7.5 0 1 0 -15 0zM233.51 948.23 a7.5 7.5 0 1 0 15 0 a7.5 7.5 0 1 0 -15 0zM298.46 -64.27 a7.5 7.5 0 1 0 15 0 a7.5 7.5 0 1 0 -15 0zM363.42 -26.77 a7.5 7.5 0 1 0 15 0 a7.5 7.5 0 1 0 -15 0zM363.42 48.23 a7.5 7.5 0 1 0 15 0 a7.5 7.5 0 1 0 -15 0zM233.51 -26.77 a7.5 7.5 0 1 0 15 0 a7.5 7.5 0 1 0 -15 0zM363.42 498.23 a7.5 7.5 0 1 0 15 0 a7.5 7.5 0 1 0 -15 0zM428.37 535.73 a7.5 7.5 0 1 0 15 0 a7.5 7.5 0 1 0 -15 0zM428.37 610.73 a7.5 7.5 0 1 0 15 0 a7.5 7.5 0 1 0 -15 0zM363.42 648.23 a7.5 7.5 0 1 0 15 0 a7.5 7.5 0 1 0 -15 0zM363.42 723.23 a7.5 7.5 0 1 0 15 0 a7.5 7.5 0 1 0 -15 0zM428.37 760.73 a7.5 7.5 0 1 0 15 0 a7.5 7.5 0 1 0 -15 0zM428.37 835.73 a7.5 7.5 0 1 0 15 0 a7.5 7.5 0 1 0 -15 0zM363.42 873.23 a7.5 7.5 0 1 0 15 0 a7.5 7.5 0 1 0 -15 0zM298.46 835.73 a7.5 7.5 0 1 0 15 0 a7.5 7.5 0 1 0 -15 0zM298.46 760.73 a7.5 7.5 0 1 0 15 0 a7.5 7.5 0 1 0 -15 0zM298.46 1060.73 a7.5 7.5 0 1 0 15 0 a7.5 7.5 0 1 0 -15 0zM363.42 1098.23 a7.5 7.5 0 1 0 15 0 a7.5 7.5 0 1 0 -15 0zM363.42 1173.23 a7.5 7.5 0 1 0 15 0 a7.5 7.5 0 1 0 -15 0zM298.46 1210.73 a7.5 7.5 0 1 0 15 0 a7.5 7.5 0 1 0 -15 0zM233.51 1173.23 a7.5 7.5 0 1 0 15 0 a7.5 7.5 0 1 0 -15 0zM233.51 1098.23 a7.5 7.5 0 1 0 15 0 a7.5 7.5 0 1 0 -15 0zM493.33 48.23 a7.5 7.5 0 1 0 15 0 a7.5 7.5 0 1 0 -15 0zM558.28 85.73 a7.5 7.5 0 1 0 15 0 a7.5 7.5 0 1 0 -15 0zM558.28 160.73 a7.5 7.5 0 1 0 15 0 a7.5 7.5 0 1 0 -15 0zM493.33 198.23 a7.5 7.5 0 1 0 15 0 a7.5 7.5 0 1 0 -15 0zM428.37 160.73 a7.5 7.5 0 1 0 15 0 a7.5 7.5 0 1 0 -15 0zM428.37 85.73 a7.5 7.5 0 1 0 15 0 a7.5 7.5 0 1 0 -15 0zM493.33 948.23 a7.5 7.5 0 1 0 15 0 a7.5 7.5 0 1 0 -15 0zM558.28 985.73 a7.5 7.5 0 1 0 15 0 a7.5 7.5 0 1 0 -15 0zM558.28 1060.73 a7.5 7.5 0 1 0 15 0 a7.5 7.5 0 1 0 -15 0zM493.33 1098.23 a7.5 7.5 0 1 0 15 0 a7.5 7.5 0 1 0 -15 0zM428.37 1060.73 a7.5 7.5 0 1 0 15 0 a7.5 7.5 0 1 0 -15 0zM428.37 985.73 a7.5 7.5 0 1 0 15 0 a7.5 7.5 0 1 0 -15 0zM493.33 1173.23 a7.5 7.5 0 1 0 15 0 a7.5 7.5 0 1 0 -15 0zM428.37 1210.73 a7.5 7.5 0 1 0 15 0 a7.5 7.5 0 1 0 -15 0zM558.28 -64.27 a7.5 7.5 0 1 0 15 0 a7.5 7.5 0 1 0 -15 0zM623.23 -26.77 a7.5 7.5 0 1 0 15 0 a7.5 7.5 0 1 0 -15 0zM623.23 48.23 a7.5 7.5 0 1 0 15 0 a7.5 7.5 0 1 0 -15 0zM493.33 -26.77 a7.5 7.5 0 1 0 15 0 a7.5 7.5 0 1 0 -15 0zM623.23 198.23 a7.5 7.5 0 1 0 15 0 a7.5 7.5 0 1 0 -15 0zM623.23 273.23 a7.5 7.5 0 1 0 15 0 a7.5 7.5 0 1 0 -15 0zM558.28 310.73 a7.5 7.5 0 1 0 15 0 a7.5 7.5 0 1 0 -15 0zM493.33 273.23 a7.5 7.5 0 1 0 15 0 a7.5 7.5 0 1 0 -15 0zM688.19 310.73 a7.5 7.5 0 1 0 15 0 a7.5 7.5 0 1 0 -15 0zM688.19 385.73 a7.5 7.5 0 1 0 15 0 a7.5 7.5 0 1 0 -15 0zM623.23 423.23 a7.5 7.5 0 1 0 15 0 a7.5 7.5 0 1 0 -15 0zM558.28 385.73 a7.5 7.5 0 1 0 15 0 a7.5 7.5 0 1 0 -15 0zM623.23 498.23 a7.5 7.5 0 1 0 15 0 a7.5 7.5 0 1 0 -15 0zM688.19 535.73 a7.5 7.5 0 1 0 15 0 a7.5 7.5 0 1 0 -15 0zM688.19 610.73 a7.5 7.5 0 1 0 15 0 a7.5 7.5 0 1 0 -15 0zM623.23 648.23 a7.5 7.5 0 1 0 15 0 a7.5 7.5 0 1 0 -15 0zM558.28 610.73 a7.5 7.5 0 1 0 15 0 a7.5 7.5 0 1 0 -15 0zM558.28 535.73 a7.5 7.5 0 1 0 15 0 a7.5 7.5 0 1 0 -15 0zM558.28 835.73 a7.5 7.5 0 1 0 15 0 a7.5 7.5 0 1 0 -15 0zM623.23 873.23 a7.5 7.5 0 1 0 15 0 a7.5 7.5 0 1 0 -15 0zM623.23 948.23 a7.5 7.5 0 1 0 15 0 a7.5 7.5 0 1 0 -15 0zM493.33 873.23 a7.5 7.5 0 1 0 15 0 a7.5 7.5 0 1 0 -15 0zM688.19 -64.27 a7.5 7.5 0 1 0 15 0 a7.5 7.5 0 1 0 -15 0zM753.14 -26.77 a7.5 7.5 0 1 0 15 0 a7.5 7.5 0 1 0 -15 0zM753.14 48.23 a7.5 7.5 0 1 0 15 0 a7.5 7.5 0 1 0 -15 0zM688.19 85.73 a7.5 7.5 0 1 0 15 0 a7.5 7.5 0 1 0 -15 0zM818.1 85.73 a7.5 7.5 0 1 0 15 0 a7.5 7.5 0 1 0 -15 0zM818.1 160.73 a7.5 7.5 0 1 0 15 0 a7.5 7.5 0 1 0 -15 0zM753.14 198.23 a7.5 7.5 0 1 0 15 0 a7.5 7.5 0 1 0 -15 0zM688.19 160.73 a7.5 7.5 0 1 0 15 0 a7.5 7.5 0 1 0 -15 0zM753.14 273.23 a7.5 7.5 0 1 0 15 0 a7.5 7.5 0 1 0 -15 0zM818.1 310.73 a7.5 7.5 0 1 0 15 0 a7.5 7.5 0 1 0 -15 0zM818.1 385.73 a7.5 7.5 0 1 0 15 0 a7.5 7.5 0 1 0 -15 0zM753.14 423.23 a7.5 7.5 0 1 0 15 0 a7.5 7.5 0 1 0 -15 0zM753.14 648.23 a7.5 7.5 0 1 0 15 0 a7.5 7.5 0 1 0 -15 0zM753.14 723.23 a7.5 7.5 0 1 0 15 0 a7.5 7.5 0 1 0 -15 0zM688.19 760.73 a7.5 7.5 0 1 0 15 0 a7.5 7.5 0 1 0 -15 0zM623.23 723.23 a7.5 7.5 0 1 0 15 0 a7.5 7.5 0 1 0 -15 0zM688.19 835.73 a7.5 7.5 0 1 0 15 0 a7.5 7.5 0 1 0 -15 0zM753.14 873.23 a7.5 7.5 0 1 0 15 0 a7.5 7.5 0 1 0 -15 0zM753.14 948.23 a7.5 7.5 0 1 0 15 0 a7.5 7.5 0 1 0 -15 0zM688.19 985.73 a7.5 7.5 0 1 0 15 0 a7.5 7.5 0 1 0 -15 0zM883.05 48.23 a7.5 7.5 0 1 0 15 0 a7.5 7.5 0 1 0 -15 0zM948 85.73 a7.5 7.5 0 1 0 15 0 a7.5 7.5 0 1 0 -15 0zM948 160.73 a7.5 7.5 0 1 0 15 0 a7.5 7.5 0 1 0 -15 0zM883.05 198.23 a7.5 7.5 0 1 0 15 0 a7.5 7.5 0 1 0 -15 0zM818.09 160.73 a7.5 7.5 0 1 0 15 0 a7.5 7.5 0 1 0 -15 0zM818.09 85.73 a7.5 7.5 0 1 0 15 0 a7.5 7.5 0 1 0 -15 0zM883.05 273.23 a7.5 7.5 0 1 0 15 0 a7.5 7.5 0 1 0 -15 0zM818.09 310.73 a7.5 7.5 0 1 0 15 0 a7.5 7.5 0 1 0 -15 0zM948 310.73 a7.5 7.5 0 1 0 15 0 a7.5 7.5 0 1 0 -15 0zM948 385.73 a7.5 7.5 0 1 0 15 0 a7.5 7.5 0 1 0 -15 0zM883.05 423.23 a7.5 7.5 0 1 0 15 0 a7.5 7.5 0 1 0 -15 0zM818.09 385.73 a7.5 7.5 0 1 0 15 0 a7.5 7.5 0 1 0 -15 0zM883.05 498.23 a7.5 7.5 0 1 0 15 0 a7.5 7.5 0 1 0 -15 0zM948 535.73 a7.5 7.5 0 1 0 15 0 a7.5 7.5 0 1 0 -15 0zM948 610.73 a7.5 7.5 0 1 0 15 0 a7.5 7.5 0 1 0 -15 0zM883.05 648.23 a7.5 7.5 0 1 0 15 0 a7.5 7.5 0 1 0 -15 0zM818.09 610.73 a7.5 7.5 0 1 0 15 0 a7.5 7.5 0 1 0 -15 0zM818.09 535.73 a7.5 7.5 0 1 0 15 0 a7.5 7.5 0 1 0 -15 0zM883.05 723.23 a7.5 7.5 0 1 0 15 0 a7.5 7.5 0 1 0 -15 0zM818.09 760.73 a7.5 7.5 0 1 0 15 0 a7.5 7.5 0 1 0 -15 0zM948 760.73 a7.5 7.5 0 1 0 15 0 a7.5 7.5 0 1 0 -15 0zM948 835.73 a7.5 7.5 0 1 0 15 0 a7.5 7.5 0 1 0 -15 0zM883.05 873.23 a7.5 7.5 0 1 0 15 0 a7.5 7.5 0 1 0 -15 0zM818.09 835.73 a7.5 7.5 0 1 0 15 0 a7.5 7.5 0 1 0 -15 0zM948 -64.27 a7.5 7.5 0 1 0 15 0 a7.5 7.5 0 1 0 -15 0zM1012.96 -26.77 a7.5 7.5 0 1 0 15 0 a7.5 7.5 0 1 0 -15 0zM1012.96 48.23 a7.5 7.5 0 1 0 15 0 a7.5 7.5 0 1 0 -15 0zM883.05 -26.77 a7.5 7.5 0 1 0 15 0 a7.5 7.5 0 1 0 -15 0zM1077.91 85.73 a7.5 7.5 0 1 0 15 0 a7.5 7.5 0 1 0 -15 0zM1077.91 160.73 a7.5 7.5 0 1 0 15 0 a7.5 7.5 0 1 0 -15 0zM1012.96 198.23 a7.5 7.5 0 1 0 15 0 a7.5 7.5 0 1 0 -15 0zM1012.96 273.23 a7.5 7.5 0 1 0 15 0 a7.5 7.5 0 1 0 -15 0zM1077.91 310.73 a7.5 7.5 0 1 0 15 0 a7.5 7.5 0 1 0 -15 0zM1077.91 385.73 a7.5 7.5 0 1 0 15 0 a7.5 7.5 0 1 0 -15 0zM1012.96 423.23 a7.5 7.5 0 1 0 15 0 a7.5 7.5 0 1 0 -15 0zM1012.96 498.23 a7.5 7.5 0 1 0 15 0 a7.5 7.5 0 1 0 -15 0zM1012.96 648.23 a7.5 7.5 0 1 0 15 0 a7.5 7.5 0 1 0 -15 0zM1012.96 723.23 a7.5 7.5 0 1 0 15 0 a7.5 7.5 0 1 0 -15 0zM1077.91 760.73 a7.5 7.5 0 1 0 15 0 a7.5 7.5 0 1 0 -15 0zM1077.91 835.73 a7.5 7.5 0 1 0 15 0 a7.5 7.5 0 1 0 -15 0zM1012.96 873.23 a7.5 7.5 0 1 0 15 0 a7.5 7.5 0 1 0 -15 0zM1012.96 948.23 a7.5 7.5 0 1 0 15 0 a7.5 7.5 0 1 0 -15 0zM1077.91 985.73 a7.5 7.5 0 1 0 15 0 a7.5 7.5 0 1 0 -15 0zM1077.91 1060.73 a7.5 7.5 0 1 0 15 0 a7.5 7.5 0 1 0 -15 0zM1012.96 1098.23 a7.5 7.5 0 1 0 15 0 a7.5 7.5 0 1 0 -15 0zM948 1060.73 a7.5 7.5 0 1 0 15 0 a7.5 7.5 0 1 0 -15 0zM948 985.73 a7.5 7.5 0 1 0 15 0 a7.5 7.5 0 1 0 -15 0zM1012.96 1173.23 a7.5 7.5 0 1 0 15 0 a7.5 7.5 0 1 0 -15 0zM948 1210.73 a7.5 7.5 0 1 0 15 0 a7.5 7.5 0 1 0 -15 0zM883.05 1173.23 a7.5 7.5 0 1 0 15 0 a7.5 7.5 0 1 0 -15 0zM883.05 1098.23 a7.5 7.5 0 1 0 15 0 a7.5 7.5 0 1 0 -15 0zM1077.91 -64.27 a7.5 7.5 0 1 0 15 0 a7.5 7.5 0 1 0 -15 0zM1142.86 -26.77 a7.5 7.5 0 1 0 15 0 a7.5 7.5 0 1 0 -15 0zM1142.86 48.23 a7.5 7.5 0 1 0 15 0 a7.5 7.5 0 1 0 -15 0zM1207.82 85.73 a7.5 7.5 0 1 0 15 0 a7.5 7.5 0 1 0 -15 0zM1207.82 160.73 a7.5 7.5 0 1 0 15 0 a7.5 7.5 0 1 0 -15 0zM1142.86 198.23 a7.5 7.5 0 1 0 15 0 a7.5 7.5 0 1 0 -15 0zM1142.86 273.23 a7.5 7.5 0 1 0 15 0 a7.5 7.5 0 1 0 -15 0zM1142.86 423.23 a7.5 7.5 0 1 0 15 0 a7.5 7.5 0 1 0 -15 0zM1142.86 498.23 a7.5 7.5 0 1 0 15 0 a7.5 7.5 0 1 0 -15 0zM1077.91 535.73 a7.5 7.5 0 1 0 15 0 a7.5 7.5 0 1 0 -15 0zM1207.82 535.73 a7.5 7.5 0 1 0 15 0 a7.5 7.5 0 1 0 -15 0zM1207.82 610.73 a7.5 7.5 0 1 0 15 0 a7.5 7.5 0 1 0 -15 0zM1142.86 648.23 a7.5 7.5 0 1 0 15 0 a7.5 7.5 0 1 0 -15 0zM1077.91 610.73 a7.5 7.5 0 1 0 15 0 a7.5 7.5 0 1 0 -15 0zM1142.86 723.23 a7.5 7.5 0 1 0 15 0 a7.5 7.5 0 1 0 -15 0zM1207.82 760.73 a7.5 7.5 0 1 0 15 0 a7.5 7.5 0 1 0 -15 0zM1207.82 835.73 a7.5 7.5 0 1 0 15 0 a7.5 7.5 0 1 0 -15 0zM1142.86 873.23 a7.5 7.5 0 1 0 15 0 a7.5 7.5 0 1 0 -15 0zM1142.86 948.23 a7.5 7.5 0 1 0 15 0 a7.5 7.5 0 1 0 -15 0zM1207.82 985.73 a7.5 7.5 0 1 0 15 0 a7.5 7.5 0 1 0 -15 0zM1207.82 1060.73 a7.5 7.5 0 1 0 15 0 a7.5 7.5 0 1 0 -15 0zM1142.86 1098.23 a7.5 7.5 0 1 0 15 0 a7.5 7.5 0 1 0 -15 0zM1142.86 1173.23 a7.5 7.5 0 1 0 15 0 a7.5 7.5 0 1 0 -15 0zM1077.91 1210.73 a7.5 7.5 0 1 0 15 0 a7.5 7.5 0 1 0 -15 0zM1207.82 385.73 a7.5 7.5 0 1 0 15 0 a7.5 7.5 0 1 0 -15 0zM1272.77 423.23 a7.5 7.5 0 1 0 15 0 a7.5 7.5 0 1 0 -15 0zM1272.77 498.23 a7.5 7.5 0 1 0 15 0 a7.5 7.5 0 1 0 -15 0zM1337.72 535.73 a7.5 7.5 0 1 0 15 0 a7.5 7.5 0 1 0 -15 0zM1337.72 610.73 a7.5 7.5 0 1 0 15 0 a7.5 7.5 0 1 0 -15 0zM1272.77 648.23 a7.5 7.5 0 1 0 15 0 a7.5 7.5 0 1 0 -15 0zM1272.77 723.23 a7.5 7.5 0 1 0 15 0 a7.5 7.5 0 1 0 -15 0zM1337.72 760.73 a7.5 7.5 0 1 0 15 0 a7.5 7.5 0 1 0 -15 0zM1337.72 835.73 a7.5 7.5 0 1 0 15 0 a7.5 7.5 0 1 0 -15 0zM1272.77 873.23 a7.5 7.5 0 1 0 15 0 a7.5 7.5 0 1 0 -15 0zM1337.73 -64.27 a7.5 7.5 0 1 0 15 0 a7.5 7.5 0 1 0 -15 0zM1402.68 -26.77 a7.5 7.5 0 1 0 15 0 a7.5 7.5 0 1 0 -15 0zM1402.68 48.23 a7.5 7.5 0 1 0 15 0 a7.5 7.5 0 1 0 -15 0zM1337.73 85.73 a7.5 7.5 0 1 0 15 0 a7.5 7.5 0 1 0 -15 0zM1272.77 48.23 a7.5 7.5 0 1 0 15 0 a7.5 7.5 0 1 0 -15 0zM1272.77 -26.77 a7.5 7.5 0 1 0 15 0 a7.5 7.5 0 1 0 -15 0zM1337.73 160.73 a7.5 7.5 0 1 0 15 0 a7.5 7.5 0 1 0 -15 0zM1402.68 198.23 a7.5 7.5 0 1 0 15 0 a7.5 7.5 0 1 0 -15 0zM1402.68 273.23 a7.5 7.5 0 1 0 15 0 a7.5 7.5 0 1 0 -15 0zM1337.73 310.73 a7.5 7.5 0 1 0 15 0 a7.5 7.5 0 1 0 -15 0zM1272.77 273.23 a7.5 7.5 0 1 0 15 0 a7.5 7.5 0 1 0 -15 0zM1272.77 198.23 a7.5 7.5 0 1 0 15 0 a7.5 7.5 0 1 0 -15 0zM1402.68 498.23 a7.5 7.5 0 1 0 15 0 a7.5 7.5 0 1 0 -15 0zM1467.63 535.73 a7.5 7.5 0 1 0 15 0 a7.5 7.5 0 1 0 -15 0zM1467.63 610.73 a7.5 7.5 0 1 0 15 0 a7.5 7.5 0 1 0 -15 0zM1402.68 648.23 a7.5 7.5 0 1 0 15 0 a7.5 7.5 0 1 0 -15 0zM1337.73 610.73 a7.5 7.5 0 1 0 15 0 a7.5 7.5 0 1 0 -15 0zM1337.73 535.73 a7.5 7.5 0 1 0 15 0 a7.5 7.5 0 1 0 -15 0zM1337.73 835.73 a7.5 7.5 0 1 0 15 0 a7.5 7.5 0 1 0 -15 0zM1402.68 873.23 a7.5 7.5 0 1 0 15 0 a7.5 7.5 0 1 0 -15 0zM1402.68 948.23 a7.5 7.5 0 1 0 15 0 a7.5 7.5 0 1 0 -15 0zM1337.73 985.73 a7.5 7.5 0 1 0 15 0 a7.5 7.5 0 1 0 -15 0zM1272.77 948.23 a7.5 7.5 0 1 0 15 0 a7.5 7.5 0 1 0 -15 0zM1467.63 985.73 a7.5 7.5 0 1 0 15 0 a7.5 7.5 0 1 0 -15 0zM1467.63 1060.73 a7.5 7.5 0 1 0 15 0 a7.5 7.5 0 1 0 -15 0zM1402.68 1098.23 a7.5 7.5 0 1 0 15 0 a7.5 7.5 0 1 0 -15 0zM1337.73 1060.73 a7.5 7.5 0 1 0 15 0 a7.5 7.5 0 1 0 -15 0zM1402.68 1173.23 a7.5 7.5 0 1 0 15 0 a7.5 7.5 0 1 0 -15 0zM1337.73 1210.73 a7.5 7.5 0 1 0 15 0 a7.5 7.5 0 1 0 -15 0zM1272.77 1173.23 a7.5 7.5 0 1 0 15 0 a7.5 7.5 0 1 0 -15 0zM1272.77 1098.23 a7.5 7.5 0 1 0 15 0 a7.5 7.5 0 1 0 -15 0zM1467.63 -64.27 a7.5 7.5 0 1 0 15 0 a7.5 7.5 0 1 0 -15 0zM1532.59 -26.77 a7.5 7.5 0 1 0 15 0 a7.5 7.5 0 1 0 -15 0zM1532.59 48.23 a7.5 7.5 0 1 0 15 0 a7.5 7.5 0 1 0 -15 0zM1467.63 85.73 a7.5 7.5 0 1 0 15 0 a7.5 7.5 0 1 0 -15 0zM1597.54 85.73 a7.5 7.5 0 1 0 15 0 a7.5 7.5 0 1 0 -15 0zM1597.54 160.73 a7.5 7.5 0 1 0 15 0 a7.5 7.5 0 1 0 -15 0zM1532.59 198.23 a7.5 7.5 0 1 0 15 0 a7.5 7.5 0 1 0 -15 0zM1467.63 160.73 a7.5 7.5 0 1 0 15 0 a7.5 7.5 0 1 0 -15 0zM1532.59 273.23 a7.5 7.5 0 1 0 15 0 a7.5 7.5 0 1 0 -15 0zM1467.63 310.73 a7.5 7.5 0 1 0 15 0 a7.5 7.5 0 1 0 -15 0zM1597.54 310.73 a7.5 7.5 0 1 0 15 0 a7.5 7.5 0 1 0 -15 0zM1597.54 385.73 a7.5 7.5 0 1 0 15 0 a7.5 7.5 0 1 0 -15 0zM1532.59 423.23 a7.5 7.5 0 1 0 15 0 a7.5 7.5 0 1 0 -15 0zM1467.63 385.73 a7.5 7.5 0 1 0 15 0 a7.5 7.5 0 1 0 -15 0zM1532.59 723.23 a7.5 7.5 0 1 0 15 0 a7.5 7.5 0 1 0 -15 0zM1597.54 760.73 a7.5 7.5 0 1 0 15 0 a7.5 7.5 0 1 0 -15 0zM1597.54 835.73 a7.5 7.5 0 1 0 15 0 a7.5 7.5 0 1 0 -15 0zM1532.59 873.23 a7.5 7.5 0 1 0 15 0 a7.5 7.5 0 1 0 -15 0zM1467.63 835.73 a7.5 7.5 0 1 0 15 0 a7.5 7.5 0 1 0 -15 0zM1467.63 760.73 a7.5 7.5 0 1 0 15 0 a7.5 7.5 0 1 0 -15 0zM1532.59 948.23 a7.5 7.5 0 1 0 15 0 a7.5 7.5 0 1 0 -15 0zM1532.59 1098.23 a7.5 7.5 0 1 0 15 0 a7.5 7.5 0 1 0 -15 0zM1532.59 1173.23 a7.5 7.5 0 1 0 15 0 a7.5 7.5 0 1 0 -15 0zM1467.63 1210.73 a7.5 7.5 0 1 0 15 0 a7.5 7.5 0 1 0 -15 0zM1597.54 -64.27 a7.5 7.5 0 1 0 15 0 a7.5 7.5 0 1 0 -15 0zM1662.49 -26.77 a7.5 7.5 0 1 0 15 0 a7.5 7.5 0 1 0 -15 0zM1662.49 48.23 a7.5 7.5 0 1 0 15 0 a7.5 7.5 0 1 0 -15 0zM1727.45 85.73 a7.5 7.5 0 1 0 15 0 a7.5 7.5 0 1 0 -15 0zM1727.45 160.73 a7.5 7.5 0 1 0 15 0 a7.5 7.5 0 1 0 -15 0zM1662.49 198.23 a7.5 7.5 0 1 0 15 0 a7.5 7.5 0 1 0 -15 0zM1662.49 423.23 a7.5 7.5 0 1 0 15 0 a7.5 7.5 0 1 0 -15 0zM1662.49 498.23 a7.5 7.5 0 1 0 15 0 a7.5 7.5 0 1 0 -15 0zM1597.54 535.73 a7.5 7.5 0 1 0 15 0 a7.5 7.5 0 1 0 -15 0zM1532.59 498.23 a7.5 7.5 0 1 0 15 0 a7.5 7.5 0 1 0 -15 0zM1727.45 535.73 a7.5 7.5 0 1 0 15 0 a7.5 7.5 0 1 0 -15 0zM1727.45 610.73 a7.5 7.5 0 1 0 15 0 a7.5 7.5 0 1 0 -15 0zM1662.49 648.23 a7.5 7.5 0 1 0 15 0 a7.5 7.5 0 1 0 -15 0zM1597.54 610.73 a7.5 7.5 0 1 0 15 0 a7.5 7.5 0 1 0 -15 0zM1662.49 723.23 a7.5 7.5 0 1 0 15 0 a7.5 7.5 0 1 0 -15 0zM1727.45 760.73 a7.5 7.5 0 1 0 15 0 a7.5 7.5 0 1 0 -15 0zM1727.45 835.73 a7.5 7.5 0 1 0 15 0 a7.5 7.5 0 1 0 -15 0zM1662.49 873.23 a7.5 7.5 0 1 0 15 0 a7.5 7.5 0 1 0 -15 0zM1662.49 948.23 a7.5 7.5 0 1 0 15 0 a7.5 7.5 0 1 0 -15 0zM1597.54 985.73 a7.5 7.5 0 1 0 15 0 a7.5 7.5 0 1 0 -15 0zM1597.54 1060.73 a7.5 7.5 0 1 0 15 0 a7.5 7.5 0 1 0 -15 0zM1662.49 1098.23 a7.5 7.5 0 1 0 15 0 a7.5 7.5 0 1 0 -15 0zM1662.49 1173.23 a7.5 7.5 0 1 0 15 0 a7.5 7.5 0 1 0 -15 0zM1597.54 1210.73 a7.5 7.5 0 1 0 15 0 a7.5 7.5 0 1 0 -15 0zM1727.45 385.73 a7.5 7.5 0 1 0 15 0 a7.5 7.5 0 1 0 -15 0zM1792.4 423.23 a7.5 7.5 0 1 0 15 0 a7.5 7.5 0 1 0 -15 0zM1792.4 498.23 a7.5 7.5 0 1 0 15 0 a7.5 7.5 0 1 0 -15 0zM1922.31 48.23 a7.5 7.5 0 1 0 15 0 a7.5 7.5 0 1 0 -15 0zM1987.26 85.73 a7.5 7.5 0 1 0 15 0 a7.5 7.5 0 1 0 -15 0zM1987.26 160.73 a7.5 7.5 0 1 0 15 0 a7.5 7.5 0 1 0 -15 0zM1922.31 198.23 a7.5 7.5 0 1 0 15 0 a7.5 7.5 0 1 0 -15 0zM1857.36 160.73 a7.5 7.5 0 1 0 15 0 a7.5 7.5 0 1 0 -15 0zM1857.36 85.73 a7.5 7.5 0 1 0 15 0 a7.5 7.5 0 1 0 -15 0zM1922.31 273.23 a7.5 7.5 0 1 0 15 0 a7.5 7.5 0 1 0 -15 0zM1857.36 310.73 a7.5 7.5 0 1 0 15 0 a7.5 7.5 0 1 0 -15 0zM1792.4 273.23 a7.5 7.5 0 1 0 15 0 a7.5 7.5 0 1 0 -15 0zM1792.4 198.23 a7.5 7.5 0 1 0 15 0 a7.5 7.5 0 1 0 -15 0zM1857.36 385.73 a7.5 7.5 0 1 0 15 0 a7.5 7.5 0 1 0 -15 0zM1922.31 423.23 a7.5 7.5 0 1 0 15 0 a7.5 7.5 0 1 0 -15 0zM1922.31 498.23 a7.5 7.5 0 1 0 15 0 a7.5 7.5 0 1 0 -15 0zM1857.36 535.73 a7.5 7.5 0 1 0 15 0 a7.5 7.5 0 1 0 -15 0zM1857.36 610.73 a7.5 7.5 0 1 0 15 0 a7.5 7.5 0 1 0 -15 0zM1922.31 648.23 a7.5 7.5 0 1 0 15 0 a7.5 7.5 0 1 0 -15 0zM1922.31 723.23 a7.5 7.5 0 1 0 15 0 a7.5 7.5 0 1 0 -15 0zM1857.36 760.73 a7.5 7.5 0 1 0 15 0 a7.5 7.5 0 1 0 -15 0zM1792.4 723.23 a7.5 7.5 0 1 0 15 0 a7.5 7.5 0 1 0 -15 0zM1792.4 648.23 a7.5 7.5 0 1 0 15 0 a7.5 7.5 0 1 0 -15 0zM1987.26 760.73 a7.5 7.5 0 1 0 15 0 a7.5 7.5 0 1 0 -15 0zM1987.26 835.73 a7.5 7.5 0 1 0 15 0 a7.5 7.5 0 1 0 -15 0zM1922.31 873.23 a7.5 7.5 0 1 0 15 0 a7.5 7.5 0 1 0 -15 0zM1857.36 835.73 a7.5 7.5 0 1 0 15 0 a7.5 7.5 0 1 0 -15 0zM1857.36 1060.73 a7.5 7.5 0 1 0 15 0 a7.5 7.5 0 1 0 -15 0zM1922.31 1098.23 a7.5 7.5 0 1 0 15 0 a7.5 7.5 0 1 0 -15 0zM1922.31 1173.23 a7.5 7.5 0 1 0 15 0 a7.5 7.5 0 1 0 -15 0zM1857.36 1210.73 a7.5 7.5 0 1 0 15 0 a7.5 7.5 0 1 0 -15 0zM1792.4 1173.23 a7.5 7.5 0 1 0 15 0 a7.5 7.5 0 1 0 -15 0zM1792.4 1098.23 a7.5 7.5 0 1 0 15 0 a7.5 7.5 0 1 0 -15 0z" fill="#03305d"></path>
        <path d="M11.4 128.61L54.7 153.61L54.7 203.61L11.4 228.61L-31.9 203.61L-31.9 153.61zM54.7 203.61L98.01 228.61L98.01 278.61L54.7 303.61L11.4 278.61L11.4 228.61zM54.7 353.61L98.01 378.61L98.01 428.61L54.7 453.61L11.4 428.61L11.4 378.61zM54.7 503.61L98.01 528.61L98.01 578.61L54.7 603.61L11.4 578.61L11.4 528.61zM11.4 578.61L54.7 603.61L54.7 653.61L11.4 678.61L-31.9 653.61L-31.9 603.61zM54.7 653.61L98.01 678.61L98.01 728.61L54.7 753.61L11.4 728.61L11.4 678.61zM11.4 728.61L54.7 753.61L54.7 803.61L11.4 828.61L-31.9 803.61L-31.9 753.61zM54.7 953.61L98.01 978.61L98.01 1028.61L54.7 1053.61L11.4 1028.61L11.4 978.61zM11.4 1028.61L54.7 1053.61L54.7 1103.61L11.4 1128.61L-31.9 1103.61L-31.9 1053.61zM98.01 -21.39L141.31 3.61L141.31 53.61L98.01 78.61L54.7 53.61L54.7 3.61zM98.01 128.61L141.31 153.61L141.31 203.61L98.01 228.61L54.7 203.61L54.7 153.61zM98.01 278.61L141.31 303.61L141.31 353.61L98.01 378.61L54.7 353.61L54.7 303.61zM98.01 428.61L141.31 453.61L141.31 503.61L98.01 528.61L54.7 503.61L54.7 453.61zM98.01 578.61L141.31 603.61L141.31 653.61L98.01 678.61L54.7 653.61L54.7 603.61zM141.31 653.61L184.61 678.61L184.61 728.61L141.31 753.61L98.01 728.61L98.01 678.61zM184.61 -21.39L227.91 3.61L227.91 53.61L184.61 78.61L141.31 53.61L141.31 3.61zM184.61 128.61L227.91 153.61L227.91 203.61L184.61 228.61L141.31 203.61L141.31 153.61zM227.91 203.61L271.21 228.61L271.21 278.61L227.91 303.61L184.61 278.61L184.61 228.61zM184.61 278.61L227.91 303.61L227.91 353.61L184.61 378.61L141.31 353.61L141.31 303.61zM227.91 353.61L271.21 378.61L271.21 428.61L227.91 453.61L184.61 428.61L184.61 378.61zM184.61 428.61L227.91 453.61L227.91 503.61L184.61 528.61L141.31 503.61L141.31 453.61zM184.61 578.61L227.91 603.61L227.91 653.61L184.61 678.61L141.31 653.61L141.31 603.61zM227.91 803.61L271.21 828.61L271.21 878.61L227.91 903.61L184.61 878.61L184.61 828.61zM271.21 -21.39L314.52 3.61L314.52 53.61L271.21 78.61L227.91 53.61L227.91 3.61zM271.21 128.61L314.52 153.61L314.52 203.61L271.21 228.61L227.91 203.61L227.91 153.61zM314.52 203.61L357.82 228.61L357.82 278.61L314.52 303.61L271.21 278.61L271.21 228.61zM314.52 503.61L357.82 528.61L357.82 578.61L314.52 603.61L271.21 578.61L271.21 528.61zM314.52 653.61L357.82 678.61L357.82 728.61L314.52 753.61L271.21 728.61L271.21 678.61zM314.52 803.61L357.82 828.61L357.82 878.61L314.52 903.61L271.21 878.61L271.21 828.61zM314.52 953.61L357.82 978.61L357.82 1028.61L314.52 1053.61L271.21 1028.61L271.21 978.61zM401.12 53.61L444.43 78.61L444.43 128.61L401.12 153.61L357.82 128.61L357.82 78.61zM357.82 128.61L401.12 153.61L401.12 203.61L357.82 228.61L314.52 203.61L314.52 153.61zM401.12 353.61L444.43 378.61L444.43 428.61L401.12 453.61L357.82 428.61L357.82 378.61zM357.82 428.61L401.12 453.61L401.12 503.61L357.82 528.61L314.52 503.61L314.52 453.61zM444.43 -21.39L487.73 3.61L487.73 53.61L444.43 78.61L401.12 53.61L401.12 3.61zM487.73 203.61L531.03 228.61L531.03 278.61L487.73 303.61L444.43 278.61L444.43 228.61zM444.43 428.61L487.73 453.61L487.73 503.61L444.43 528.61L401.12 503.61L401.12 453.61zM487.73 503.61L531.03 528.61L531.03 578.61L487.73 603.61L444.43 578.61L444.43 528.61zM487.73 653.61L531.03 678.61L531.03 728.61L487.73 753.61L444.43 728.61L444.43 678.61zM444.43 728.61L487.73 753.61L487.73 803.61L444.43 828.61L401.12 803.61L401.12 753.61zM487.73 803.61L531.03 828.61L531.03 878.61L487.73 903.61L444.43 878.61L444.43 828.61zM444.43 878.61L487.73 903.61L487.73 953.61L444.43 978.61L401.12 953.61L401.12 903.61zM487.73 953.61L531.03 978.61L531.03 1028.61L487.73 1053.61L444.43 1028.61L444.43 978.61zM444.43 1028.61L487.73 1053.61L487.73 1103.61L444.43 1128.61L401.12 1103.61L401.12 1053.61zM531.03 278.61L574.33 303.61L574.33 353.61L531.03 378.61L487.73 353.61L487.73 303.61zM531.03 428.61L574.33 453.61L574.33 503.61L531.03 528.61L487.73 503.61L487.73 453.61zM531.03 728.61L574.33 753.61L574.33 803.61L531.03 828.61L487.73 803.61L487.73 753.61zM531.03 1028.61L574.33 1053.61L574.33 1103.61L531.03 1128.61L487.73 1103.61L487.73 1053.61zM617.63 128.61L660.94 153.61L660.94 203.61L617.63 228.61L574.33 203.61L574.33 153.61zM660.94 503.61L704.24 528.61L704.24 578.61L660.94 603.61L617.63 578.61L617.63 528.61zM617.63 578.61L660.94 603.61L660.94 653.61L617.63 678.61L574.33 653.61L574.33 603.61zM617.63 878.61L660.94 903.61L660.94 953.61L617.63 978.61L574.33 953.61L574.33 903.61zM704.24 -21.39L747.54 3.61L747.54 53.61L704.24 78.61L660.94 53.61L660.94 3.61zM704.24 278.61L747.54 303.61L747.54 353.61L704.24 378.61L660.94 353.61L660.94 303.61zM747.54 503.61L790.85 528.61L790.85 578.61L747.54 603.61L704.24 578.61L704.24 528.61zM704.24 578.61L747.54 603.61L747.54 653.61L704.24 678.61L660.94 653.61L660.94 603.61zM704.24 878.61L747.54 903.61L747.54 953.61L704.24 978.61L660.94 953.61L660.94 903.61zM790.85 -21.39L834.15 3.61L834.15 53.61L790.85 78.61L747.54 53.61L747.54 3.61zM834.15 53.61L877.45 78.61L877.45 128.61L834.15 153.61L790.85 128.61L790.85 78.61zM790.85 128.61L834.15 153.61L834.15 203.61L790.85 228.61L747.54 203.61L747.54 153.61zM834.15 353.61L877.45 378.61L877.45 428.61L834.15 453.61L790.85 428.61L790.85 378.61zM790.85 428.61L834.15 453.61L834.15 503.61L790.85 528.61L747.54 503.61L747.54 453.61zM834.15 803.61L877.45 828.61L877.45 878.61L834.15 903.61L790.85 878.61L790.85 828.61zM834.15 953.61L877.45 978.61L877.45 1028.61L834.15 1053.61L790.85 1028.61L790.85 978.61zM877.45 -21.39L920.75 3.61L920.75 53.61L877.45 78.61L834.15 53.61L834.15 3.61zM920.75 53.61L964.06 78.61L964.06 128.61L920.75 153.61L877.45 128.61L877.45 78.61zM877.45 428.61L920.75 453.61L920.75 503.61L877.45 528.61L834.15 503.61L834.15 453.61zM877.45 578.61L920.75 603.61L920.75 653.61L877.45 678.61L834.15 653.61L834.15 603.61zM920.75 653.61L964.06 678.61L964.06 728.61L920.75 753.61L877.45 728.61L877.45 678.61zM964.06 -21.39L1007.36 3.61L1007.36 53.61L964.06 78.61L920.75 53.61L920.75 3.61zM964.06 128.61L1007.36 153.61L1007.36 203.61L964.06 228.61L920.75 203.61L920.75 153.61zM1007.36 353.61L1050.66 378.61L1050.66 428.61L1007.36 453.61L964.06 428.61L964.06 378.61zM964.06 878.61L1007.36 903.61L1007.36 953.61L964.06 978.61L920.75 953.61L920.75 903.61zM1007.36 953.61L1050.66 978.61L1050.66 1028.61L1007.36 1053.61L964.06 1028.61L964.06 978.61zM1093.96 53.61L1137.27 78.61L1137.27 128.61L1093.96 153.61L1050.66 128.61L1050.66 78.61zM1093.96 203.61L1137.27 228.61L1137.27 278.61L1093.96 303.61L1050.66 278.61L1050.66 228.61zM1050.66 278.61L1093.96 303.61L1093.96 353.61L1050.66 378.61L1007.36 353.61L1007.36 303.61zM1050.66 428.61L1093.96 453.61L1093.96 503.61L1050.66 528.61L1007.36 503.61L1007.36 453.61zM1093.96 503.61L1137.27 528.61L1137.27 578.61L1093.96 603.61L1050.66 578.61L1050.66 528.61zM1093.96 803.61L1137.27 828.61L1137.27 878.61L1093.96 903.61L1050.66 878.61L1050.66 828.61zM1180.57 203.61L1223.87 228.61L1223.87 278.61L1180.57 303.61L1137.27 278.61L1137.27 228.61zM1180.57 353.61L1223.87 378.61L1223.87 428.61L1180.57 453.61L1137.27 428.61L1137.27 378.61zM1137.27 428.61L1180.57 453.61L1180.57 503.61L1137.27 528.61L1093.96 503.61L1093.96 453.61zM1137.27 578.61L1180.57 603.61L1180.57 653.61L1137.27 678.61L1093.96 653.61L1093.96 603.61zM1137.27 728.61L1180.57 753.61L1180.57 803.61L1137.27 828.61L1093.96 803.61L1093.96 753.61zM1180.57 803.61L1223.87 828.61L1223.87 878.61L1180.57 903.61L1137.27 878.61L1137.27 828.61zM1137.27 878.61L1180.57 903.61L1180.57 953.61L1137.27 978.61L1093.96 953.61L1093.96 903.61zM1223.87 -21.39L1267.17 3.61L1267.17 53.61L1223.87 78.61L1180.57 53.61L1180.57 3.61zM1267.17 653.61L1310.48 678.61L1310.48 728.61L1267.17 753.61L1223.87 728.61L1223.87 678.61zM1223.87 878.61L1267.17 903.61L1267.17 953.61L1223.87 978.61L1180.57 953.61L1180.57 903.61zM1267.17 953.61L1310.48 978.61L1310.48 1028.61L1267.17 1053.61L1223.87 1028.61L1223.87 978.61zM1310.48 -21.39L1353.78 3.61L1353.78 53.61L1310.48 78.61L1267.17 53.61L1267.17 3.61zM1353.78 53.61L1397.08 78.61L1397.08 128.61L1353.78 153.61L1310.48 128.61L1310.48 78.61zM1310.48 578.61L1353.78 603.61L1353.78 653.61L1310.48 678.61L1267.17 653.61L1267.17 603.61zM1310.48 878.61L1353.78 903.61L1353.78 953.61L1310.48 978.61L1267.17 953.61L1267.17 903.61zM1353.78 953.61L1397.08 978.61L1397.08 1028.61L1353.78 1053.61L1310.48 1028.61L1310.48 978.61zM1310.48 1028.61L1353.78 1053.61L1353.78 1103.61L1310.48 1128.61L1267.17 1103.61L1267.17 1053.61zM1440.38 53.61L1483.69 78.61L1483.69 128.61L1440.38 153.61L1397.08 128.61L1397.08 78.61zM1397.08 128.61L1440.38 153.61L1440.38 203.61L1397.08 228.61L1353.78 203.61L1353.78 153.61zM1440.38 503.61L1483.69 528.61L1483.69 578.61L1440.38 603.61L1397.08 578.61L1397.08 528.61zM1440.38 653.61L1483.69 678.61L1483.69 728.61L1440.38 753.61L1397.08 728.61L1397.08 678.61zM1440.38 803.61L1483.69 828.61L1483.69 878.61L1440.38 903.61L1397.08 878.61L1397.08 828.61zM1483.69 -21.39L1526.99 3.61L1526.99 53.61L1483.69 78.61L1440.38 53.61L1440.38 3.61zM1483.69 128.61L1526.99 153.61L1526.99 203.61L1483.69 228.61L1440.38 203.61L1440.38 153.61zM1526.99 203.61L1570.29 228.61L1570.29 278.61L1526.99 303.61L1483.69 278.61L1483.69 228.61zM1483.69 278.61L1526.99 303.61L1526.99 353.61L1483.69 378.61L1440.38 353.61L1440.38 303.61zM1483.69 428.61L1526.99 453.61L1526.99 503.61L1483.69 528.61L1440.38 503.61L1440.38 453.61zM1483.69 578.61L1526.99 603.61L1526.99 653.61L1483.69 678.61L1440.38 653.61L1440.38 603.61zM1483.69 728.61L1526.99 753.61L1526.99 803.61L1483.69 828.61L1440.38 803.61L1440.38 753.61zM1483.69 1028.61L1526.99 1053.61L1526.99 1103.61L1483.69 1128.61L1440.38 1103.61L1440.38 1053.61zM1570.29 128.61L1613.59 153.61L1613.59 203.61L1570.29 228.61L1526.99 203.61L1526.99 153.61zM1613.59 203.61L1656.9 228.61L1656.9 278.61L1613.59 303.61L1570.29 278.61L1570.29 228.61zM1570.29 278.61L1613.59 303.61L1613.59 353.61L1570.29 378.61L1526.99 353.61L1526.99 303.61zM1613.59 503.61L1656.9 528.61L1656.9 578.61L1613.59 603.61L1570.29 578.61L1570.29 528.61zM1613.59 953.61L1656.9 978.61L1656.9 1028.61L1613.59 1053.61L1570.29 1028.61L1570.29 978.61zM1700.2 203.61L1743.5 228.61L1743.5 278.61L1700.2 303.61L1656.9 278.61L1656.9 228.61zM1656.9 278.61L1700.2 303.61L1700.2 353.61L1656.9 378.61L1613.59 353.61L1613.59 303.61zM1656.9 428.61L1700.2 453.61L1700.2 503.61L1656.9 528.61L1613.59 503.61L1613.59 453.61zM1700.2 503.61L1743.5 528.61L1743.5 578.61L1700.2 603.61L1656.9 578.61L1656.9 528.61zM1656.9 578.61L1700.2 603.61L1700.2 653.61L1656.9 678.61L1613.59 653.61L1613.59 603.61zM1656.9 728.61L1700.2 753.61L1700.2 803.61L1656.9 828.61L1613.59 803.61L1613.59 753.61zM1656.9 878.61L1700.2 903.61L1700.2 953.61L1656.9 978.61L1613.59 953.61L1613.59 903.61zM1743.5 -21.39L1786.8 3.61L1786.8 53.61L1743.5 78.61L1700.2 53.61L1700.2 3.61zM1743.5 128.61L1786.8 153.61L1786.8 203.61L1743.5 228.61L1700.2 203.61L1700.2 153.61zM1743.5 278.61L1786.8 303.61L1786.8 353.61L1743.5 378.61L1700.2 353.61L1700.2 303.61zM1743.5 428.61L1786.8 453.61L1786.8 503.61L1743.5 528.61L1700.2 503.61L1700.2 453.61zM1786.8 503.61L1830.11 528.61L1830.11 578.61L1786.8 603.61L1743.5 578.61L1743.5 528.61zM1786.8 803.61L1830.11 828.61L1830.11 878.61L1786.8 903.61L1743.5 878.61L1743.5 828.61zM1786.8 953.61L1830.11 978.61L1830.11 1028.61L1786.8 1053.61L1743.5 1028.61L1743.5 978.61zM1830.11 -21.39L1873.41 3.61L1873.41 53.61L1830.11 78.61L1786.8 53.61L1786.8 3.61zM1830.11 128.61L1873.41 153.61L1873.41 203.61L1830.11 228.61L1786.8 203.61L1786.8 153.61zM1830.11 278.61L1873.41 303.61L1873.41 353.61L1830.11 378.61L1786.8 353.61L1786.8 303.61zM1873.41 353.61L1916.71 378.61L1916.71 428.61L1873.41 453.61L1830.11 428.61L1830.11 378.61zM1830.11 578.61L1873.41 603.61L1873.41 653.61L1830.11 678.61L1786.8 653.61L1786.8 603.61zM1873.41 653.61L1916.71 678.61L1916.71 728.61L1873.41 753.61L1830.11 728.61L1830.11 678.61zM1830.11 728.61L1873.41 753.61L1873.41 803.61L1830.11 828.61L1786.8 803.61L1786.8 753.61zM1873.41 803.61L1916.71 828.61L1916.71 878.61L1873.41 903.61L1830.11 878.61L1830.11 828.61zM1873.41 953.61L1916.71 978.61L1916.71 1028.61L1873.41 1053.61L1830.11 1028.61L1830.11 978.61zM1916.71 -21.39L1960.01 3.61L1960.01 53.61L1916.71 78.61L1873.41 53.61L1873.41 3.61zM1960.01 203.61L2003.32 228.61L2003.32 278.61L1960.01 303.61L1916.71 278.61L1916.71 228.61zM1916.71 278.61L1960.01 303.61L1960.01 353.61L1916.71 378.61L1873.41 353.61L1873.41 303.61zM1960.01 503.61L2003.32 528.61L2003.32 578.61L1960.01 603.61L1916.71 578.61L1916.71 528.61zM1916.71 728.61L1960.01 753.61L1960.01 803.61L1916.71 828.61L1873.41 803.61L1873.41 753.61zM1916.71 878.61L1960.01 903.61L1960.01 953.61L1916.71 978.61L1873.41 953.61L1873.41 903.61zM1960.01 953.61L2003.32 978.61L2003.32 1028.61L1960.01 1053.61L1916.71 1028.61L1916.71 978.61zM1916.71 1028.61L1960.01 1053.61L1960.01 1103.61L1916.71 1128.61L1873.41 1103.61L1873.41 1053.61z" stroke="rgba(6, 80, 156, 0.93)" stroke-width="2"></path>
    </g>
    <defs>
        <mask id="SvgjsMask1009">
            <rect width="1920" height="1080" fill="#ffffff"></rect>
        </mask>
    </defs>
</svg>