<svg xmlns="http://www.w3.org/2000/svg" viewBox="0 0 1920 1080"><g transform="
          rotate(85 960 540) 
          translate(-823.8417977809977 -463.41101125181115)
          scale(1.8581685393552059)
        "><rect width="1920" height="1080" fill="rgb(184, 171, 255)"></rect><g transform="translate(0, 0)"><path fill="rgb(105, 86, 199)" fill-opacity="1" d="M0,529.415L40,525.113C80,520.81,160,512.206,240,510.872C320,509.538,400,515.475,480,516.142C560,516.81,640,512.208,720,454.775C800,397.341,880,287.075,960,277.762C1040,268.45,1120,360.091,1200,332.004C1280,303.917,1360,156.103,1440,147.721C1520,139.338,1600,270.387,1680,303.028C1760,335.67,1840,269.905,1880,237.023L1920,204.14L1920,1080L1880,1080C1840,1080,1760,1080,1680,1080C1600,1080,1520,1080,1440,1080C1360,1080,1280,1080,1200,1080C1120,1080,1040,1080,960,1080C880,1080,800,1080,720,1080C640,1080,560,1080,480,1080C400,1080,320,1080,240,1080C160,1080,80,1080,40,1080L0,1080Z"></path></g><g transform="translate(0, 540)"><path fill="rgb(26, 0, 143)" fill-opacity="1" d="M0,36.204L40,93.089C80,149.974,160,263.743,240,284.257C320,304.771,400,232.03,480,195.621C560,159.212,640,159.135,720,211.911C800,264.687,880,370.316,960,427.046C1040,483.776,1120,491.608,1200,427.012C1280,362.417,1360,225.394,1440,168.935C1520,112.475,1600,136.578,1680,189.409C1760,242.24,1840,323.799,1880,364.578L1920,405.357L1920,540L1880,540C1840,540,1760,540,1680,540C1600,540,1520,540,1440,540C1360,540,1280,540,1200,540C1120,540,1040,540,960,540C880,540,800,540,720,540C640,540,560,540,480,540C400,540,320,540,240,540C160,540,80,540,40,540L0,540Z"></path></g></g></svg>